HIERARCHY
ROOT Hips
{
 OFFSET 0.000000 0.000000 0.000000
 CHANNELS 6 Xposition Yposition Zposition Yrotation Xrotation Zrotation
 JOINT Chest
 {
  OFFSET 0.000000 10.383400 0.001500
  CHANNELS 3 Yrotation Xrotation Zrotation
  JOINT Chest2
  {
   OFFSET 0.000000 10.418200 -0.003100
   CHANNELS 3 Yrotation Xrotation Zrotation
   JOINT Chest3
   {
    OFFSET 0.000000 10.375100 0.000000
    CHANNELS 3 Yrotation Xrotation Zrotation
    JOINT Chest4
    {
     OFFSET 0.000000 10.364600 0.000000
     CHANNELS 3 Yrotation Xrotation Zrotation
     JOINT Neck
     {
      OFFSET 0.000000 15.642200 0.000000
      CHANNELS 3 Yrotation Xrotation Zrotation
      JOINT Head
      {
       OFFSET 0.000000 9.697300 -0.006500
       CHANNELS 3 Yrotation Xrotation Zrotation
       End Site
       {
        OFFSET 0.000000 18.492200 -0.003400
       }
      }
     }
     JOINT RightCollar
     {
      OFFSET -3.166800 10.349300 0.000000
      CHANNELS 3 Yrotation Xrotation Zrotation
      JOINT RightShoulder
      {
       OFFSET -14.729700 0.000000 0.000000
       CHANNELS 3 Yrotation Xrotation Zrotation
       JOINT RightElbow
       {
        OFFSET 0.000000 -32.224300 0.000000
        CHANNELS 3 Yrotation Xrotation Zrotation
        JOINT RightWrist
        {
         OFFSET 0.000000 -26.084100 0.000000
         CHANNELS 3 Yrotation Xrotation Zrotation
         End Site
         {
          OFFSET 0.000000 -19.319400 0.000000
         }
        }
       }
      }
     }
     JOINT LeftCollar
     {
      OFFSET 3.166800 10.349300 0.000000
      CHANNELS 3 Yrotation Xrotation Zrotation
      JOINT LeftShoulder
      {
       OFFSET 14.729700 0.000000 0.000000
       CHANNELS 3 Yrotation Xrotation Zrotation
       JOINT LeftElbow
       {
        OFFSET 0.000000 -32.224300 0.000000
        CHANNELS 3 Yrotation Xrotation Zrotation
        JOINT LeftWrist
        {
         OFFSET 0.000000 -26.084100 0.000000
         CHANNELS 3 Yrotation Xrotation Zrotation
         End Site
         {
          OFFSET 0.000000 -19.319400 0.000000
         }
        }
       }
      }
     }
    }
   }
  }
 }
 JOINT RightHip
 {
  OFFSET -8.428900 -0.007500 -0.000800
  CHANNELS 3 Yrotation Xrotation Zrotation
  JOINT RightKnee
  {
   OFFSET 0.000000 -43.834600 0.000700
   CHANNELS 3 Yrotation Xrotation Zrotation
   JOINT RightAnkle
   {
    OFFSET 0.000000 -42.757000 0.001200
    CHANNELS 3 Yrotation Xrotation Zrotation
    JOINT RightToe
    {
     OFFSET 0.000000 -6.946900 15.649300
     CHANNELS 3 Yrotation Xrotation Zrotation
     End Site
     {
      OFFSET 0.000000 -1.580800 6.825800
     }
    }
   }
  }
 }
 JOINT LeftHip
 {
  OFFSET 8.428900 -0.007500 -0.000800
  CHANNELS 3 Yrotation Xrotation Zrotation
  JOINT LeftKnee
  {
   OFFSET 0.000000 -43.834600 0.000700
   CHANNELS 3 Yrotation Xrotation Zrotation
   JOINT LeftAnkle
   {
    OFFSET 0.000000 -42.757000 0.001200
    CHANNELS 3 Yrotation Xrotation Zrotation
    JOINT LeftToe
    {
     OFFSET 0.000000 -6.946900 15.649300
     CHANNELS 3 Yrotation Xrotation Zrotation
     End Site
     {
      OFFSET 0.000000 -1.580800 6.825800
     }
    }
   }
  }
 }
}
MOTION
Frames: 5
Frame Time: 0.008333
0.000000 93.354300 0.000000 0.000000 -5.767877 0.000000 0.000000 11.653817 0.000000 0.000000 -5.885947 0.000000 0.000000 -0.000000 0.000000 0.000000 -0.000000 0.000000 0.000000 12.528835 0.000000 0.000000 0.711642 0.000000 0.000000 -0.000000 0.000000 0.000000 0.000000 -90.000000 0.000000 -2.309062 0.000000 0.000000 2.309062 0.000000 0.000000 -0.000000 0.000000 0.000000 -0.000000 90.000000 0.000000 -2.309062 0.000000 0.000000 2.309062 0.000000 0.000000 8.520406 0.000000 0.000000 1.905762 0.000000 -0.000000 -4.658285 0.000000 0.000000 -0.000000 0.000000 0.000000 8.520406 0.000000 0.000000 1.905762 0.000000 -0.000000 -4.658285 0.000000 0.000000 -0.000000 0.000000
1.264806 151.213693 -9.125008 173.326188 -15.969622 -3.686129 0.037051 16.914241 1.550779 -0.017082 1.759302 0.159191 -0.023594 2.931298 0.264331 0.008167 14.899772 1.359866 -0.525092 11.707856 -0.161457 -0.513337 -13.352589 -0.046651 5.801519 -1.375598 0.402654 18.097429 -18.566724 -13.765976 50.253836 -51.446414 -25.323430 18.119455 -2.417984 -31.547697 -7.205092 0.160597 -1.789823 -3.208479 -21.599499 11.039801 -18.479259 -63.196754 -5.543075 -13.152171 5.284476 2.171309 2.493348 -51.303089 10.652434 -108.668750 83.619081 -105.138688 -2.194149 -22.394340 0.623301 -0.007006 -0.000943 0.005776 2.111214 -52.014696 -3.897399 100.341992 80.713557 107.213379 9.793917 -21.487478 -10.501290 0.004633 0.000383 0.004386
0.697447 143.284647 -8.309282 173.325241 -15.968658 -3.680975 0.035866 16.914158 1.545848 -0.017176 1.759273 0.159155 -0.025951 2.933888 0.265372 0.006855 14.900868 1.356293 -0.526328 11.703499 -0.156633 -0.507090 -13.357782 -0.048966 5.800136 -1.384709 0.403830 18.093450 -18.561713 -13.760183 50.242809 -51.452893 -25.312395 18.120799 -2.433275 -31.543336 -7.202478 0.159470 -1.787404 -3.205365 -21.602197 11.039927 -18.482412 -63.194571 -5.547049 -13.147796 5.269991 2.190847 2.499158 -51.303904 10.645498 -108.714017 83.616267 -105.190937 -2.198604 -22.395400 0.633318 -0.007653 0.000989 -0.003397 2.122239 -52.019183 -3.910643 100.381527 80.712656 107.252702 9.797279 -21.486795 -10.495828 0.002234 -0.001545 0.000991
0.231431 136.755016 -7.637779 173.323337 -15.970046 -3.682591 0.035675 16.916563 1.543564 -0.017210 1.760104 0.159403 -0.026566 2.938116 0.262826 0.010510 14.897203 1.360622 -0.526866 11.701618 -0.155613 -0.509370 -13.364248 -0.041607 5.798205 -1.388512 0.405594 18.091218 -18.559672 -13.753650 50.233925 -51.454659 -25.303584 18.120702 -2.448723 -31.537497 -7.201095 0.162442 -1.785657 -3.198559 -21.598325 11.041769 -18.509564 -63.199951 -5.535900 -13.146026 5.262970 2.208229 2.502983 -51.303929 10.645825 -108.734790 83.612860 -105.210812 -2.200547 -22.394326 0.635249 -0.006794 -0.001959 -0.003016 2.123393 -52.020459 -3.909121 100.386822 80.713393 107.258369 9.802838 -21.482998 -10.494601 -0.001366 -0.001861 -0.000606
-0.105409 132.039029 -7.152315 173.324346 -15.967267 -3.682587 0.035432 16.917524 1.540540 -0.017397 1.760102 0.159299 -0.028990 2.935917 0.264455 0.011852 14.897952 1.360089 -0.527583 11.699662 -0.154464 -0.508232 -13.365980 -0.040082 5.797928 -1.391165 0.407484 18.080097 -18.551541 -13.749874 50.235020 -51.464571 -25.300075 18.121206 -2.450444 -31.538380 -7.200575 0.163813 -1.782894 -3.199549 -21.599834 11.041645 -18.538833 -63.193883 -5.518462 -13.146762 5.258134 2.230700 2.507435 -51.307047 10.645002 -108.725362 83.606036 -105.201299 -2.200043 -22.393522 0.635972 -0.003535 -0.003193 -0.001569 2.122694 -52.022264 -3.909056 100.375872 80.716103 107.248143 9.805260 -21.482550 -10.493323 -0.003202 -0.000158 -0.001421
